<svg width="24" height="18" viewBox="0 0 24 18" fill="none" xmlns="http://www.w3.org/2000/svg">
<rect x="0.210938" y="14.7651" width="22.9963" height="2.24776" rx="1.12388" fill="#FF4D67"/>
<path d="M21.3822 12.6849C21.3876 12.7826 21.3089 12.8925 21.1626 12.8925H11.7097H2.25684C2.1105 12.8925 2.03179 12.7826 2.03716 12.6849C2.07869 11.9305 2.16233 11.02 2.28627 10.1759C2.41276 9.31428 2.5727 8.58377 2.74754 8.15263C3.23641 6.9471 3.95256 5.85274 4.85433 4.93164C5.75607 4.01058 6.82572 3.28082 8.0018 2.78323C9.17784 2.28567 10.4377 2.02979 11.7097 2.02979C12.9817 2.02979 14.2416 2.28566 15.4176 2.78323C16.5937 3.28082 17.6633 4.01058 18.5651 4.93164L19.101 4.40696L18.5651 4.93164C19.4668 5.85274 20.183 6.9471 20.6719 8.15263C20.8467 8.58377 21.0066 9.31428 21.1331 10.1759C21.2571 11.02 21.3407 11.9305 21.3822 12.6849Z" stroke="#FF4D67" stroke-width="1.5"/>
<rect x="9.62109" y="0.155273" width="4.18115" height="2.24776" rx="0.9" fill="#FF4D67"/>
</svg>
