<svg width="46" height="46" viewBox="0 0 46 46" fill="none" xmlns="http://www.w3.org/2000/svg">
<rect width="1.83851" height="6.94977" rx="0.919257" transform="matrix(-0.333185 -0.942862 -0.965753 0.259463 20.3618 19.7034)" fill="#ACB4BE"/>
<rect width="1.83929" height="6.9498" rx="0.919647" transform="matrix(-0.998103 -0.061568 0.0114117 0.999935 15.0103 14.2148)" fill="#ACB4BE"/>
<mask id="path-3-inside-1" fill="white">
<path d="M13.8211 19.2905C14.5144 17.5956 15.6598 16.1237 17.1323 15.0352C18.6048 13.9467 20.3479 13.2835 22.1715 13.1177C23.9952 12.952 25.8293 13.2902 27.4739 14.0954C29.1185 14.9006 30.5104 16.1419 31.4979 17.684C32.4854 19.2261 33.0305 21.0097 33.0738 22.8403C33.1171 24.671 32.6569 26.4783 31.7434 28.0654C30.8299 29.6524 29.4982 30.9581 27.8934 31.8401C26.2887 32.7222 24.4726 33.1467 22.6432 33.0673L22.7573 30.4373C24.1051 30.4958 25.4431 30.1831 26.6254 29.5332C27.8077 28.8834 28.7889 27.9214 29.4619 26.7521C30.1349 25.5829 30.474 24.2513 30.4421 22.9025C30.4102 21.5538 30.0086 20.2397 29.2811 19.1036C28.5535 17.9675 27.528 17.0529 26.3163 16.4597C25.1047 15.8664 23.7533 15.6173 22.4098 15.7394C21.0662 15.8615 19.782 16.3501 18.6971 17.1521C17.6122 17.954 16.7683 19.0385 16.2575 20.2872L13.8211 19.2905Z"/>
</mask>
<path d="M13.8211 19.2905C14.5144 17.5956 15.6598 16.1237 17.1323 15.0352C18.6048 13.9467 20.3479 13.2835 22.1715 13.1177C23.9952 12.952 25.8293 13.2902 27.4739 14.0954C29.1185 14.9006 30.5104 16.1419 31.4979 17.684C32.4854 19.2261 33.0305 21.0097 33.0738 22.8403C33.1171 24.671 32.6569 26.4783 31.7434 28.0654C30.8299 29.6524 29.4982 30.9581 27.8934 31.8401C26.2887 32.7222 24.4726 33.1467 22.6432 33.0673L22.7573 30.4373C24.1051 30.4958 25.4431 30.1831 26.6254 29.5332C27.8077 28.8834 28.7889 27.9214 29.4619 26.7521C30.1349 25.5829 30.474 24.2513 30.4421 22.9025C30.4102 21.5538 30.0086 20.2397 29.2811 19.1036C28.5535 17.9675 27.528 17.0529 26.3163 16.4597C25.1047 15.8664 23.7533 15.6173 22.4098 15.7394C21.0662 15.8615 19.782 16.3501 18.6971 17.1521C17.6122 17.954 16.7683 19.0385 16.2575 20.2872L13.8211 19.2905Z" stroke="#ACB4BE" stroke-width="4" mask="url(#path-3-inside-1)"/>
</svg>
