<svg width="11" height="17" viewBox="0 0 11 17" fill="none" xmlns="http://www.w3.org/2000/svg">
<path d="M1 1.27668V15.7763C1 15.8259 1.02165 15.8729 1.05926 15.9052C1.12287 15.9597 1.21675 15.9597 1.28036 15.9052C1.31797 15.8729 1.33962 15.8259 1.33962 15.7763V1.27668C1.33962 1.23894 1.32704 1.20227 1.30388 1.17247C1.23589 1.08501 1.10373 1.08501 1.03574 1.17247C1.01258 1.20227 1 1.23894 1 1.27668Z" fill="#ACB4BE" stroke="#ACB4BE"/>
<path d="M5.70333 2.74761C3.48124 1.93808 1.99236 2.51318 1.60779 2.6967C1.54496 2.72668 1.50863 2.79005 1.50765 2.85965L1.42958 8.41659C1.42733 8.57653 1.61067 8.68607 1.75788 8.6235C2.36981 8.36342 3.78701 7.96664 5.70333 8.71849C7.9353 9.59418 9.50302 8.96541 9.90071 8.77071C9.96379 8.73983 9.99974 8.67552 9.99974 8.60528V3.08808C9.99974 2.93545 9.83114 2.83017 9.68791 2.8829C9.085 3.10489 7.64569 3.45524 5.70333 2.74761Z" fill="#ACB4BE" stroke="#ACB4BE"/>
</svg>
