<svg width="25" height="26" viewBox="0 0 25 26" fill="none" xmlns="http://www.w3.org/2000/svg">
<path d="M24.309 4.8544C24.1631 5.47289 24.0415 6.09137 23.8956 6.70986C23.6524 7.91591 23.4092 9.15288 23.1417 10.3589C23.0201 10.9774 22.8255 11.163 22.2905 11.163C21.415 11.163 20.5638 11.163 19.6883 11.163C19.6154 11.163 19.5181 11.163 19.3965 11.163C19.3965 11.0393 19.3965 11.2867 19.3965 11.163C18.5703 15.3896 18.8514 19.6046 19.3965 23.9347C19.3965 24.6769 19.1533 24.9861 18.5697 24.9861C14.5088 24.3198 10.8246 24.3198 6.65319 24.9861C6.07575 25.0784 5.85065 24.7078 5.85065 23.9656C6.34137 19.7584 6.65319 15.2049 5.85065 11.163C5.85065 11.3485 5.85065 11.0393 5.85065 11.163C5.75338 11.163 5.68042 11.163 5.60746 11.163C4.73197 11.163 3.83215 11.163 2.95666 11.163C2.44595 11.163 2.2514 10.9774 2.1298 10.328C1.76501 8.50347 1.40022 6.67894 1.03543 4.88533C0.913833 4.26684 1.10839 3.89575 1.57045 3.74113C4.24558 2.84432 6.89638 1.97844 9.57151 1.08164C10.0336 0.927017 10.4713 1.08164 10.6416 1.85475C10.8361 2.87525 11.4684 3.33911 12.2223 3.52466C13.0005 3.7102 13.7301 3.49373 14.2895 2.72063C14.484 2.47323 14.6299 2.13306 14.7029 1.7929C14.8245 1.08164 15.2865 0.896093 15.7243 1.05071C18.3994 1.94752 21.0989 2.84432 23.774 3.7102C24.0415 3.80298 24.1874 4.01945 24.3333 4.29777C24.309 4.51424 24.309 4.66886 24.309 4.8544ZM18.1319 23.3162C18.1319 23.811 18.1319 22.8214 18.1319 23.3162C17.5863 19.5205 17.4458 14.3769 18.1319 10.5754C18.2892 9.76416 18.3751 9.52397 18.9344 9.52397C19.664 9.52397 20.4179 9.52397 21.1475 9.52397C21.415 9.52397 21.7068 9.52397 21.9987 9.52397C22.2905 8.07053 22.6067 6.61709 22.8985 5.16365C22.8255 5.13272 22.8012 5.13272 22.8012 5.1018C20.5882 4.35961 18.3751 3.64836 16.1377 2.90617C15.8216 2.8134 15.8216 2.8134 15.6513 3.18449C15.6027 3.27726 15.5784 3.33911 15.5297 3.43189C14.8488 4.60701 13.9247 5.22549 12.7573 5.22549C11.3955 5.25642 10.3254 4.54516 9.64447 3.02987C9.54719 2.84432 9.47423 2.8134 9.32832 2.87525C7.82052 3.40096 6.31272 3.89575 4.80492 4.39054C4.02671 4.63793 3.24849 4.91625 2.42163 5.16365C2.71346 6.61709 3.02961 8.07053 3.32145 9.52397C3.41872 9.52397 3.516 9.52397 3.58896 9.52397C4.53741 9.52397 5.51018 9.52397 6.45864 9.52397C6.89638 9.52397 7.13958 9.83321 7.13958 10.3899C7.13958 10.4826 7.1395 10.2804 7.1395 10.3732C7.75464 16.831 7.51103 19.2164 7.18474 23.2948C7.18474 23.4185 7.13958 23.1616 7.13958 23.2853C10.8246 22.9873 14.5088 22.9873 18.1319 23.3162Z" fill="#FF4D67"/>
<path d="M19.3965 11.163C19.5181 11.163 19.6154 11.163 19.6883 11.163C20.5638 11.163 21.415 11.163 22.2905 11.163C22.8255 11.163 23.0201 10.9774 23.1417 10.3589C23.4092 9.15288 23.6524 7.91591 23.8956 6.70986C24.0415 6.09137 24.1631 5.47289 24.309 4.8544C24.309 4.66886 24.309 4.51424 24.3333 4.29777C24.1874 4.01945 24.0415 3.80298 23.774 3.7102C21.0989 2.84432 18.3994 1.94752 15.7243 1.05071C15.2865 0.896093 14.8245 1.08164 14.7029 1.7929C14.6299 2.13306 14.484 2.47323 14.2895 2.72063C13.7301 3.49373 13.0005 3.7102 12.2223 3.52466C11.4684 3.33911 10.8361 2.87525 10.6416 1.85475C10.4713 1.08164 10.0336 0.927017 9.57151 1.08164C6.89638 1.97844 4.24558 2.84432 1.57045 3.74113C1.10839 3.89575 0.913833 4.26684 1.03543 4.88533C1.40022 6.67894 1.76501 8.50347 2.1298 10.328C2.2514 10.9774 2.44595 11.163 2.95666 11.163C3.83215 11.163 4.73197 11.163 5.60746 11.163C5.68042 11.163 5.75338 11.163 5.85065 11.163M19.3965 11.163C19.3965 11.2867 19.3965 11.0393 19.3965 11.163ZM19.3965 11.163C18.5703 15.3896 18.8514 19.6046 19.3965 23.9347C19.3965 24.6769 19.1533 24.9861 18.5697 24.9861C14.5088 24.3198 10.8246 24.3198 6.65319 24.9861C6.07575 25.0784 5.85065 24.7078 5.85065 23.9656C6.34137 19.7584 6.65319 15.2049 5.85065 11.163M5.85065 11.163C5.85065 11.0393 5.85065 11.3485 5.85065 11.163ZM18.1319 23.3162C18.1319 22.8214 18.1319 23.811 18.1319 23.3162ZM18.1319 23.3162C17.5863 19.5205 17.4458 14.3769 18.1319 10.5754C18.2892 9.76416 18.3751 9.52397 18.9344 9.52397C19.664 9.52397 20.4179 9.52397 21.1475 9.52397C21.415 9.52397 21.7068 9.52397 21.9987 9.52397C22.2905 8.07053 22.6067 6.61709 22.8985 5.16365C22.8255 5.13272 22.8012 5.13272 22.8012 5.1018C20.5882 4.35961 18.3751 3.64836 16.1377 2.90617C15.8216 2.8134 15.8216 2.8134 15.6513 3.18449C15.6027 3.27726 15.5784 3.33911 15.5297 3.43189C14.8488 4.60701 13.9247 5.22549 12.7573 5.22549C11.3955 5.25642 10.3254 4.54516 9.64447 3.02987C9.54719 2.84432 9.47423 2.8134 9.32832 2.87525C7.82052 3.40096 6.31272 3.89575 4.80492 4.39054C4.02671 4.63793 3.24849 4.91625 2.42163 5.16365C2.71346 6.61709 3.02961 8.07053 3.32145 9.52397C3.41872 9.52397 3.516 9.52397 3.58896 9.52397C4.53741 9.52397 5.51018 9.52397 6.45864 9.52397C6.89638 9.52397 7.13958 9.83321 7.13958 10.3899C7.13958 10.4826 7.1395 10.2804 7.1395 10.3732C7.75464 16.831 7.51103 19.2164 7.18474 23.2948C7.18474 23.4185 7.13958 23.1616 7.13958 23.2853C10.8246 22.9873 14.5088 22.9873 18.1319 23.3162Z" stroke="#FF4D67" stroke-width="0.5"/>
</svg>
