<svg width="24" height="23" viewBox="0 0 24 23" fill="none" xmlns="http://www.w3.org/2000/svg">
<path d="M20.98 21.1197C21.3688 21.5557 21.3688 22.2369 20.98 22.6729C20.7856 22.8909 20.5425 23 20.2995 23C20.0564 23 19.8134 22.8909 19.619 22.6729L11.8905 14.0071L4.28355 22.6729C4.08912 22.8909 3.8461 23 3.60307 23C3.36004 23 3.11699 22.8909 2.92256 22.6729C2.53371 22.2369 2.53371 21.5557 2.92256 21.1197L10.5538 12.4538L9.26574 11.0095L9.07133 11.2275C8.46374 11.9087 7.63743 12.2902 6.76251 12.2902C5.88759 12.2902 5.06127 11.9087 4.45369 11.2275L1.22133 7.63039C0.832474 7.19438 0.832474 6.51304 1.22133 6.07703C1.61018 5.64101 2.21775 5.64101 2.60661 6.07703L5.83897 9.67423C6.082 9.94674 6.42225 10.1101 6.78681 10.1101C7.15136 10.1101 7.46731 9.94674 7.73464 9.67423L7.95335 9.42886L3.79748 4.76903C3.40862 4.33301 3.40862 3.65168 3.79748 3.21566C4.18633 2.77964 4.79393 2.77964 5.18279 3.21566L9.33866 7.87563L9.58169 7.60312C10.0921 7.03084 10.0921 6.07697 9.58169 5.47745L6.34933 1.88038C5.96048 1.44436 5.96048 0.763031 6.34933 0.327013C6.73819 -0.109004 7.34579 -0.109004 7.73464 0.327013L10.967 3.92421C12.2551 5.36852 12.2551 7.6849 10.967 9.1292L10.7239 9.40172L12.012 10.846L20.5668 1.11727C20.7369 0.89926 21.0043 0.790336 21.2473 0.790336C21.4903 0.790336 21.7577 0.89926 21.9278 1.11727C24.0908 3.54262 23.7263 6.94904 21.0043 10.0012L17.7233 13.6801C17.3345 14.1161 16.7269 14.1161 16.338 13.6801C15.9492 13.244 15.9492 12.5628 16.338 12.1268L19.619 8.44793C21.5875 6.24059 21.5389 4.57816 21.1258 3.56987L13.3487 12.3993L20.98 21.1197Z" fill="#FF4D67"/>
</svg>
