<svg width="19" height="44" viewBox="0 0 19 44" fill="none" xmlns="http://www.w3.org/2000/svg">
<path d="M18.1408 0.061063C18.1408 2.26971 18.1408 5.29564 18.1408 6.84169C16.3948 6.92717 13.5733 6.72588 12.5688 7.38385C11.9576 7.78424 12.3306 10.9827 12.173 13.614C14.3498 13.614 16.1308 13.614 18.3077 13.614C18.1098 16.0435 17.8214 18.7432 17.6235 20.731C17.6235 20.9518 17.6545 20.9025 17.2588 20.9025C15.8735 20.9025 13.9541 20.9025 12.5688 20.9025C12.5688 21.5651 12.5688 22.2277 12.5688 22.8903C12.5688 27.9702 12.5 38.4201 12.5 43.5C12.5 43.5 12.4895 43.5 11.5 43.5C9.91685 43.5 8.58315 43.5 7 43.5C5.81264 43.5 5 43.5 5 43.5C5 38.4201 5.04882 27.9702 5.04882 22.8903C5.04882 22.2277 5.04882 21.786 5.04882 20.9025C3.86146 20.9025 2.18016 20.9025 0.992791 20.9025C-0.145793 20.9025 0.00682052 21.0623 0.00682052 19.9579C0.00682052 18.4119 0.0164588 16.1016 0.0164588 14.5555C0.0164588 13.6721 -0.0731437 13.8348 0.718433 13.8348C1.7079 13.8348 3.46567 13.8348 4.65303 13.8348C4.65303 9.1967 4.25725 4.55854 8.21513 1.90817C11.3814 -0.521342 14.5207 0.0612922 18.1408 0.061063Z" fill="white"/>
</svg>
