<svg width="28" height="24" viewBox="0 0 28 24" fill="none" xmlns="http://www.w3.org/2000/svg">
<path d="M27 11.3181C27 13.5829 26.9976 15.355 26.7846 16.7902C26.5749 18.2024 26.1772 19.1596 25.4797 19.8633C24.7715 20.5777 23.6341 21.1522 21.6957 21.5376C19.7568 21.9232 17.1197 22.1 13.5188 22.1C6.51358 22.1 3.58678 20.7891 2.27819 19.0757C1.61827 18.2116 1.28517 17.1424 1.12884 15.824C0.993799 14.6851 0.997465 13.4442 1.00156 12.0592C1.00227 11.8167 1.003 11.5697 1.003 11.3181C1.003 7.99379 1.1621 5.56323 2.62867 3.87365C4.0739 2.20866 7.05258 1 13.5188 1C16.4064 1 18.6971 1.08825 20.5199 1.36293C22.344 1.63782 23.6116 2.08774 24.5131 2.74766C26.2496 4.01882 27 6.36167 27 11.3181Z" stroke="#FF4D67" stroke-width="2"/>
<ellipse cx="8.20748" cy="8.01437" rx="2.41353" ry="2.35714" stroke="#FF4D67" stroke-width="1.6"/>
<path d="M0.967285 11.7858L1.40422 13.4927C2.58727 15.9468 6.29516 18.5629 14.0004 13.6715C23.6545 7.54303 27.0335 16.9715 27.0335 16.9715L23.6545 20.743L11.5868 22.1573L2.89811 19.3287L1.40422 13.4927C1.10499 12.872 0.967285 12.2617 0.967285 11.7858Z" fill="#FF4D67"/>
</svg>
