<svg width="12" height="12" viewBox="0 0 12 12" fill="none" xmlns="http://www.w3.org/2000/svg">
<path fill-rule="evenodd" clip-rule="evenodd" d="M0 6C0 2.7 2.7 0 6 0C9.3 0 12 2.7 12 6C12 9.3 9.3 12 6 12C2.7 12 0 9.3 0 6ZM5.68155 6.77425L8.12955 8.28025C8.34555 8.41225 8.62755 8.34625 8.75955 8.13625C8.89155 7.92025 8.81955 7.63825 8.60355 7.50625L6.29955 6.12025V3.45026C6.29955 3.20426 6.09555 3.00026 5.84955 3.00026C5.60355 3.00026 5.39955 3.20426 5.39355 3.45026V6.26426C5.39355 6.47425 5.50155 6.66625 5.68155 6.77425Z" fill="#888888"/>
</svg>
