<svg width="82" height="82" viewBox="0 0 82 82" fill="none" xmlns="http://www.w3.org/2000/svg">
<g clip-path="url(#clip0)">
<path d="M40.9809 81.9615C41.9832 81.9615 42.9856 82.0577 43.9687 81.9423C59.6015 80.365 71.0129 72.5747 78.0679 58.5714C80.8436 53.0701 82.0966 47.1649 82.0002 40.9904C81.9616 38.586 80.2654 36.9317 77.8944 36.951C75.5235 36.9702 73.8272 38.7206 73.7115 41.3174C73.6537 42.3753 73.7501 43.4333 73.6151 44.4912C72.6128 53.1086 68.8732 60.3603 62.223 65.9578C54.956 72.0938 46.5131 74.6521 37.0679 73.5557C28.7214 72.5747 21.6856 68.9008 16.1727 62.5531C9.94655 55.3784 7.20936 46.9726 8.25026 37.5473C9.40682 27.0448 14.5921 18.8506 23.5361 13.1569C29.2804 9.50223 35.6029 7.9057 42.4266 8.25194C44.6819 8.36735 46.8986 8.73282 49.0961 9.15599C51.814 9.69458 54.1078 7.67488 53.9922 4.90499C53.9151 3.05841 52.7007 1.635 50.7153 1.13488C45.8577 -0.0961786 40.9423 -0.327002 35.9884 0.288527C13.5704 3.07764 -2.42864 23.5825 0.308553 45.9916C2.79515 66.5348 20.317 82.0385 40.9809 81.9615Z" fill="white"/>
<path d="M28.5671 36.9701C26.8322 37.0086 25.5214 37.7588 24.8468 39.3745C24.1529 41.0673 24.4227 42.683 25.7335 43.991C29.7814 48.0689 33.8487 52.1083 37.9159 56.167C38.8219 57.071 39.9399 57.4749 41.2507 57.3788C42.6771 57.2634 43.6216 56.3785 44.5083 55.3783C51.0814 47.8765 57.6545 40.3748 64.2276 32.873C66.9841 29.7377 69.7406 26.6216 72.4585 23.467C74.0006 21.6781 73.8463 19.0429 72.1886 17.581C70.4538 16.0806 67.8322 16.2922 66.2516 18.1196C58.1171 27.4871 50.002 36.874 41.8675 46.2608C40.9808 47.2995 40.9037 47.2995 39.9206 46.357C37.222 43.7025 34.5041 41.0673 31.8054 38.4128C30.9187 37.5087 29.8778 36.9317 28.5671 36.9701Z" fill="white"/>
<path d="M40.9809 81.9615C20.317 82.0192 2.81441 66.5156 0.308536 45.9915C-2.42865 23.5824 13.5704 3.07762 36.0269 0.326979C40.9809 -0.28855 45.8962 -0.0577265 50.7538 1.17333C52.7392 1.67345 53.9536 3.09686 54.0307 4.94345C54.1464 7.69409 51.8332 9.71379 49.1346 9.19444C46.9179 8.77127 44.7204 8.4058 42.4651 8.29038C35.6414 7.94415 29.2996 9.54068 23.5747 13.1954C14.6306 18.889 9.44535 27.0832 8.2888 37.5857C7.24789 47.011 9.96581 55.4168 16.2112 62.5916C21.7242 68.9392 28.7599 72.6324 37.1064 73.5942C46.5516 74.6906 55.0138 72.1323 62.2616 65.9962C68.9118 60.3795 72.632 53.147 73.6537 44.5296C73.7693 43.4909 73.6922 42.4138 73.75 41.3558C73.885 38.7398 75.562 36.9894 77.9329 36.9894C80.3039 36.9702 82.0002 38.6244 82.0387 41.0288C82.1351 47.2034 80.8822 53.1086 78.1064 58.6099C71.0514 72.6132 59.64 80.3842 44.0072 81.9807C42.9663 82.0577 41.9639 81.9615 40.9809 81.9615Z" fill="white"/>
<path d="M28.5671 36.9702C29.8971 36.9125 30.9187 37.5088 31.8247 38.3936C34.5233 41.0481 37.2413 43.6833 39.9399 46.3378C40.923 47.2996 40.9808 47.2803 41.8868 46.2416C50.002 36.8548 58.1364 27.468 66.2709 18.1004C67.8515 16.2731 70.4731 16.0615 72.2079 17.5618C73.8849 19.0237 74.0391 21.6589 72.4778 23.4478C69.7598 26.6024 66.9841 29.7185 64.2469 32.8539C57.6738 40.3556 51.1007 47.8382 44.5276 55.3591C43.6409 56.3786 42.6964 57.2442 41.2699 57.3596C39.9784 57.475 38.8604 57.0711 37.9352 56.1478C33.868 52.0891 29.8007 48.0497 25.7528 43.9719C24.442 42.6446 24.1721 41.0289 24.8661 39.3554C25.5215 37.7589 26.8322 37.0087 28.5671 36.9702Z" fill="white"/>
</g>
<defs>
<clipPath id="clip0">
<rect width="82" height="82" fill="white"/>
</clipPath>
</defs>
</svg>
