<svg width="106" height="52" viewBox="0 0 106 52" fill="none" xmlns="http://www.w3.org/2000/svg">
<g opacity="0.9">
<path d="M14.3721 9.12628C11.7453 8.73147 9.90659 8.50369 8.85589 8.44295C8.62241 11.9052 8.4327 14.8966 8.28677 17.4174C9.13316 17.63 9.97956 17.797 10.826 17.9185C11.0011 17.9489 11.2929 17.9944 11.7015 18.0552C11.7891 18.0552 11.9204 18.0703 12.0955 18.1007C12.2999 18.1311 12.4458 18.1615 12.5333 18.1918C12.5917 18.2222 12.6647 18.2374 12.7522 18.2374C12.8398 18.2374 12.8982 18.2526 12.9274 18.2829C13.1025 18.2829 13.2338 18.2981 13.3214 18.3285C13.4965 18.3285 13.6132 18.3437 13.6716 18.374H14.0218C14.051 18.374 14.0948 18.3892 14.1532 18.4196C14.2407 18.4196 14.2991 18.4196 14.3283 18.4196H14.591H15.0288H15.2039H15.2914H15.379L15.5541 20.2418H15.4228C15.3644 20.2418 15.3206 20.257 15.2914 20.2874H15.0725H14.5472H14.2407H13.8905C13.7446 20.2874 13.6278 20.2722 13.5403 20.2418H13.1463C13.0879 20.2418 13.0149 20.2418 12.9274 20.2418C12.8398 20.2115 12.7814 20.1963 12.7522 20.1963C12.5479 20.1963 12.402 20.1811 12.3144 20.1507C12.1393 20.1507 11.8475 20.1203 11.4389 20.0596C11.3221 20.0596 11.1616 20.0444 10.9573 20.014C10.753 19.9837 10.6071 19.9685 10.5195 19.9685C10.286 19.9381 9.892 19.8926 9.33746 19.8318C8.81211 19.7407 8.4181 19.6648 8.15543 19.604C7.74682 29.6263 8.0095 34.9411 8.94345 35.5485C8.68078 36.2774 7.9949 36.9151 6.88583 37.4618C5.80595 38.0388 4.84281 38.3425 3.99641 38.3729C3.12083 38.4033 2.39117 38.0085 1.80745 37.1885C1.22373 36.3988 0.800533 35.2448 0.537858 33.7262C0.304369 32.2077 0.143845 30.5981 0.0562869 28.8974C-0.0312713 27.1663 -0.0166769 25.1618 0.100067 22.884C0.216812 20.6063 0.333556 18.5715 0.4503 16.7796C0.567045 14.9574 0.712974 12.9226 0.888091 10.6752C1.09239 8.42777 1.22373 6.74221 1.2821 5.61851C1.34048 4.19111 1.89501 3.11296 2.94571 2.38407C4.0256 1.65518 5.35356 1.27555 6.92961 1.24518C8.50566 1.18444 10.0671 1.24518 11.614 1.42741C13.19 1.57926 14.6493 1.76148 15.9919 1.97407C17.3345 2.15629 18.1517 2.20185 18.4435 2.11074C18.4727 2.23222 18.4873 2.38407 18.4873 2.56629C18.5165 2.74851 18.5311 3.11296 18.5311 3.65962C18.5603 4.17592 18.5603 4.67703 18.5311 5.16296C18.5019 5.61851 18.3997 6.13481 18.2246 6.71184C18.0495 7.25851 17.816 7.72925 17.5242 8.12406C17.2323 8.48851 16.8091 8.77702 16.2546 8.98962C15.7292 9.20221 15.1017 9.24776 14.3721 9.12628Z" fill="url(#paint0_linear)"/>
<path d="M29.2228 21.3807L30.4924 21.8818C30.4632 21.9122 30.2589 22.3526 29.8795 23.2029C29.5292 24.0533 29.1352 24.9492 28.6974 25.8907C28.2888 26.8018 27.6905 27.8496 26.9025 29.034C26.1436 30.2185 25.3556 31.2662 24.5384 32.1774C23.7212 33.0581 22.7435 33.8022 21.6052 34.4096C20.4669 35.017 19.3141 35.3055 18.1466 35.2751C16.8333 35.2144 15.8409 34.6677 15.1697 33.6351C14.5276 32.5722 14.1773 31.2663 14.119 29.7174C14.0898 28.1381 14.1482 26.574 14.2941 25.0251C14.44 23.4763 14.6005 22.0337 14.7757 20.6974C14.98 19.3611 15.0383 18.5411 14.9508 18.2374C15.1259 18.207 15.3594 18.1766 15.6512 18.1463C15.9431 18.0855 16.4539 18.0855 17.1835 18.1463C17.9423 18.1766 18.5844 18.3133 19.1098 18.5563C19.6351 18.7689 20.0875 19.194 20.4669 19.8318C20.8464 20.4696 20.9631 21.2896 20.8172 22.2918C20.0291 27.8496 20.1605 30.8411 21.2112 31.2662C21.649 31.4485 22.2473 31.2662 23.0061 30.7196C23.9401 30.0514 24.9178 28.9429 25.9393 27.394C26.99 25.8148 27.8072 24.4177 28.391 23.2029L29.2228 21.3807ZM20.6858 14.5929C20.0437 15.2611 19.2703 15.5952 18.3655 15.5952C17.4608 15.5952 16.6873 15.2611 16.0452 14.5929C15.4032 13.9248 15.0821 13.12 15.0821 12.1785C15.0821 11.237 15.4032 10.4322 16.0452 9.76406C16.6873 9.09591 17.4608 8.76184 18.3655 8.76184C19.2703 8.76184 20.0437 9.09591 20.6858 9.76406C21.3279 10.4322 21.649 11.237 21.649 12.1785C21.649 13.12 21.3279 13.9248 20.6858 14.5929Z" fill="url(#paint1_linear)"/>
<path d="M47.4633 22.474C47.4633 22.474 47.7843 22.4589 48.4264 22.4285C48.835 22.5196 48.981 22.7626 48.8642 23.1574C48.8642 23.1877 48.7621 23.5674 48.5577 24.2963C48.3534 25.0251 48.1346 25.8148 47.9011 26.6651C47.6676 27.5155 47.3319 28.5633 46.8941 29.8085C46.4563 31.0233 45.9894 32.1925 45.4932 33.3162C45.0262 34.4399 44.4425 35.5788 43.742 36.7329C43.0416 37.887 42.3119 38.874 41.5531 39.694C40.8234 40.514 39.977 41.167 39.0139 41.6529C38.0508 42.1692 37.0584 42.397 36.0369 42.3362C35.2489 42.3059 34.5922 42.0325 34.0669 41.5162C33.5415 41.0303 33.1767 40.347 32.9724 39.4662C32.7681 38.5855 32.6367 37.644 32.5784 36.6418C32.52 35.6396 32.5492 34.4703 32.6659 33.134C32.8119 31.7977 32.9578 30.5981 33.1037 29.5351C33.2496 28.4418 33.4102 27.227 33.5853 25.8907C33.7896 24.5544 33.9355 23.5218 34.0231 22.7929C32.1844 22.7626 30.725 22.5955 29.6452 22.2918C28.5945 21.9577 27.9232 21.5477 27.6313 21.0618C27.3395 20.5759 27.1498 20.0292 27.0622 19.4218C27.0038 18.8144 27.033 18.1918 27.1498 17.554C27.2957 16.8859 27.2519 16.2329 27.0184 15.5952C27.1935 15.5041 27.4124 15.4129 27.6751 15.3218C27.967 15.2307 28.4631 15.1244 29.1636 15.0029C29.8932 14.8815 30.5207 14.8815 31.0461 15.0029C31.6006 15.1244 32.0676 15.4737 32.447 16.0507C32.8556 16.6278 33.0162 17.4629 32.9286 18.5563C32.8702 19.3459 33.4977 19.7407 34.8111 19.7407C35.2781 19.7103 35.7451 19.7103 36.212 19.7407C36.679 19.7711 37.2335 19.9077 37.8756 20.1507C38.5177 20.3633 39.0431 20.6822 39.4517 21.1074C39.8895 21.5326 40.2397 22.1703 40.5024 23.0207C40.7651 23.8407 40.8234 24.8126 40.6775 25.9363C39.977 31.5244 39.656 34.9259 39.7144 36.1407C39.7727 38.4488 40.5316 38.7829 41.9909 37.1429C43.0124 36.0192 43.9755 34.2425 44.8803 31.8129C45.8143 29.3529 46.4855 27.1814 46.8941 25.2985L47.4633 22.474Z" fill="url(#paint2_linear)"/>
<path d="M63.2976 23.1574L63.4728 24.2507C63.2976 24.1596 63.0495 24.0381 62.7285 23.8863C62.4075 23.704 61.7946 23.4459 60.8898 23.1118C60.0142 22.7777 59.1824 22.55 58.3944 22.4285C57.6063 22.2766 56.7454 22.2614 55.8114 22.3829C54.9066 22.5044 54.1624 22.8385 53.5787 23.3852C53.8997 23.9014 54.3521 24.6151 54.9358 25.5263C55.5487 26.407 56.0303 27.1359 56.3805 27.7129C56.7599 28.2596 57.1977 28.9581 57.6939 29.8085C58.2193 30.6285 58.6133 31.327 58.8759 31.904C59.1386 32.4507 59.4013 33.0885 59.664 33.8174C59.9558 34.5159 60.1018 35.1385 60.1018 35.6851C60.1309 36.2014 60.0872 36.7329 59.9704 37.2796C59.8829 37.8262 59.6494 38.3274 59.27 38.7829C58.9197 39.2385 58.4527 39.6485 57.869 40.0129C55.7968 41.0455 54.0456 41.3948 52.6155 41.0607H52.5717C52.4842 41.0607 52.4258 41.0455 52.3966 41.0151C52.0172 40.9544 51.6524 40.8481 51.3022 40.6962C50.8935 40.5748 50.3828 40.3166 49.7699 39.9218C49.0986 39.4662 48.5441 38.9499 48.1063 38.3729C47.5517 37.644 47.1431 36.824 46.8805 35.9129C46.8805 35.8522 46.8659 35.7914 46.8367 35.7307C46.8367 35.6396 46.8367 35.5788 46.8367 35.5485L46.7929 35.4574V35.3662L46.7491 35.184L46.7053 35.0474V34.8651C46.6762 34.774 46.6616 34.6525 46.6616 34.5007C46.574 34.0451 46.5302 33.5592 46.5302 33.0429C46.5302 31.9496 46.647 30.9322 46.8805 29.9907C47.1431 29.0492 47.5226 28.0926 48.0187 27.1207C48.0187 27.0903 48.0333 27.0751 48.0625 27.0751L48.1063 26.984C47.6393 26.3159 47.1577 25.587 46.6616 24.7974C45.8444 23.4611 45.2752 22.2311 44.9542 21.1074C44.6623 19.9533 44.5894 18.9966 44.7353 18.2374C44.9104 17.4781 45.1877 16.7948 45.5671 16.1874C45.9757 15.58 46.4573 15.1092 47.0118 14.7752C47.5663 14.4107 48.0771 14.107 48.5441 13.8641C49.0402 13.6211 49.4634 13.4692 49.8137 13.4085L50.339 13.2718C49.5802 15.1852 50.3536 18.0703 52.6593 21.9274C53.5641 21.4111 54.5418 21.1074 55.5925 21.0163C56.6724 20.8948 57.6355 20.9403 58.4819 21.1529C59.3575 21.3655 60.1601 21.6237 60.8898 21.9274C61.6486 22.2311 62.2323 22.5196 62.6409 22.7929L63.2976 23.1574ZM49.8137 36.9151C50.0763 37.2188 50.4704 37.5529 50.9957 37.9174L51.2584 38.054C52.2507 38.4185 52.8636 38.2059 53.0971 37.4162C53.3306 36.5962 53.2868 35.7155 52.9658 34.774C52.6739 33.8022 52.2945 32.9518 51.8275 32.2229C51.3605 31.494 50.6455 30.4614 49.6823 29.1251C49.5364 28.9429 49.4342 28.8063 49.3759 28.7151C49.1424 29.2314 48.9527 29.8237 48.8067 30.4918C48.6316 31.3725 48.5587 32.2077 48.5878 32.9974C48.617 33.2403 48.6608 33.6351 48.7192 34.1818C48.7484 34.2729 48.7776 34.3944 48.8067 34.5462C48.8359 34.6981 48.8651 34.8348 48.8943 34.9562C48.9235 35.0777 48.9527 35.184 48.9819 35.2751C49.1278 35.8522 49.4051 36.3988 49.8137 36.9151Z" fill="url(#paint3_linear)"/>
<path d="M77.4362 21.0618L78.3994 21.7907C78.3118 22.0337 78.1951 22.3526 78.0491 22.7474C77.9032 23.1118 77.5676 23.8711 77.0422 25.0251C76.5461 26.1488 76.0207 27.227 75.4662 28.2596C74.9116 29.2618 74.1966 30.3855 73.321 31.6307C72.4746 32.8455 71.599 33.8933 70.6943 34.774C69.8187 35.6244 68.7972 36.3229 67.6297 36.8696C66.4623 37.4162 65.2948 37.644 64.1274 37.5529C63.4269 37.5225 62.8286 37.1581 62.3324 36.4596C61.8363 35.7611 61.4569 34.7437 61.1942 33.4074C60.9607 32.0407 60.771 30.6285 60.6251 29.1707C60.5083 27.7129 60.4645 25.9514 60.4937 23.8863C60.5229 21.7907 60.5667 19.9381 60.6251 18.3285C60.6834 16.7189 60.771 14.8359 60.8877 12.6796C60.7126 12.6796 60.4645 12.6948 60.1435 12.7252C59.8224 12.7252 59.589 12.7404 59.443 12.7707C58.8009 12.7707 58.3339 12.7859 58.0421 12.8163H55.9845H55.3716H55.1964L55.0651 11.4041C55.1235 11.4041 55.1964 11.3889 55.284 11.3585C55.3132 11.3585 55.5029 11.3281 55.8531 11.2674C55.9991 11.237 56.1742 11.2066 56.3785 11.1763C56.5828 11.1459 56.8309 11.1155 57.1227 11.0852C57.4438 11.0244 57.7064 10.9789 57.9107 10.9485C57.9983 10.9485 58.2026 10.9333 58.5237 10.9029C58.8447 10.8422 59.0928 10.7966 59.2679 10.7663C59.5889 10.7055 60.0997 10.6448 60.8002 10.5841C60.8585 10.5537 60.9169 10.5385 60.9753 10.5385C61.3547 4.52518 61.4277 1.06296 61.1942 0.151853C61.3109 0.121481 61.4569 0.0911099 61.632 0.06074C61.8071 0.03037 62.1427 0.0151849 62.6389 0.0151849C63.1642 -0.015185 63.6458 9.06829e-08 64.0836 0.06074C64.5506 0.121482 65.0467 0.273334 65.5721 0.516295C66.1266 0.759258 66.5936 1.09333 66.973 1.51852C67.3524 1.91333 67.6443 2.49037 67.8486 3.24962C68.0821 4.00888 68.1551 4.90481 68.0675 5.9374C68.0383 6.48406 67.9654 7.82036 67.8486 9.94628C67.9654 9.94628 68.1697 9.94628 68.4615 9.94628C68.7534 9.91591 68.9577 9.90073 69.0744 9.90073C69.3955 9.87036 69.8479 9.85517 70.4316 9.85517C70.5775 9.85517 70.7818 9.85517 71.0445 9.85517C71.3072 9.8248 71.4969 9.80962 71.6136 9.80962H72.533H73.321L73.4086 11.2218C73.2334 11.2826 72.9854 11.3433 72.6643 11.4041C72.4016 11.4648 72.0952 11.5104 71.7449 11.5407C71.6282 11.5407 71.4385 11.5711 71.1758 11.6318C70.9423 11.6622 70.7526 11.6926 70.6067 11.7229C70.4608 11.7229 70.2273 11.7533 69.9062 11.8141C69.6144 11.8444 69.3809 11.8748 69.2058 11.9052C69.089 11.9052 68.8555 11.9355 68.5053 11.9963C68.1842 12.0266 67.9362 12.057 67.7611 12.0874C67.6443 14.4866 67.5568 17.1289 67.4984 20.014C67.5276 25.5414 67.5713 28.6544 67.6297 29.3529C67.834 31.8433 68.3448 33.0733 69.162 33.0429C69.5414 33.0429 69.9792 32.8303 70.4753 32.4051C71.3217 31.6762 72.3287 30.3703 73.4961 28.4874C74.6636 26.6044 75.6121 24.8885 76.3418 23.3396L77.4362 21.0618Z" fill="url(#paint4_linear)"/>
<path d="M93.0284 21.8363L93.904 22.5652C91.4816 27.2726 88.4316 30.8714 84.7542 33.3618C81.6313 35.4877 78.9899 36.2014 76.8302 35.5029C74.5828 34.7437 73.5905 32.5418 73.8532 28.8974C73.8824 28.4114 73.9408 27.9103 74.0283 27.394C74.291 25.8451 74.758 24.5089 75.4292 23.3852C76.1297 22.2614 76.8885 21.4263 77.7058 20.8796C78.5522 20.3026 79.4423 19.8926 80.3763 19.6496C81.3394 19.3763 82.1858 19.2548 82.9155 19.2852C83.6451 19.2852 84.258 19.3611 84.7542 19.5129C85.3963 19.7255 85.9216 20.1052 86.3302 20.6518C86.7389 21.1681 86.9723 21.8514 87.0307 22.7018C87.0891 23.5522 86.7972 24.5089 86.1551 25.5718C85.1336 27.3029 83.2365 28.1229 80.4638 28.0318C80.1428 31.0385 80.7703 32.4203 82.3463 32.1774C84.0683 31.904 86.4762 30.0211 89.5699 26.5285C91.3503 24.4937 92.5031 22.9296 93.0284 21.8363ZM83.9662 22.0185C83.791 22.0185 83.6305 22.0185 83.4846 22.0185C83.3387 22.0185 83.1052 22.1096 82.7841 22.2918C82.4923 22.4437 82.2296 22.6714 81.9961 22.9752C81.7626 23.2789 81.5145 23.78 81.2519 24.4785C80.9892 25.1466 80.7849 25.9514 80.639 26.8929C82.7987 27.0448 84.258 26.3159 85.0169 24.7063C85.1336 24.4329 85.2212 24.114 85.2795 23.7496C85.3379 23.3548 85.265 22.9752 85.0607 22.6107C84.8563 22.2159 84.4915 22.0185 83.9662 22.0185Z" fill="url(#paint5_linear)"/>
<path d="M103.872 18.784C105.448 18.9966 106.149 20.2114 105.974 22.4285C105.769 24.8885 104.675 27.47 102.69 30.1729C101.173 32.2381 99.4652 33.8022 97.5681 34.8651C97.2471 43.0651 97.466 47.4081 98.2248 47.894C97.6411 50.0199 96.2402 51.1284 94.022 51.2196C93.0881 51.2499 92.3292 50.6729 91.7455 49.4884C91.191 48.3344 90.8261 46.8007 90.651 44.8873C90.5051 42.974 90.4321 40.8177 90.4321 38.4185C90.4321 36.0496 90.5343 33.6503 90.7386 31.2207C90.9429 28.7911 91.1034 26.4677 91.2202 24.2507C91.3661 22.0033 91.4828 20.1052 91.5704 18.5563C91.6871 17.0074 91.658 15.9141 91.4828 15.2763C91.5996 15.2459 91.7455 15.2155 91.9206 15.1852C92.0957 15.1548 92.4314 15.1396 92.9275 15.1396C93.4529 15.1092 93.9345 15.1244 94.3723 15.1852C94.8392 15.2459 95.3354 15.3978 95.8607 15.6407C96.4153 15.8837 96.8823 16.2178 97.2617 16.6429C97.6411 17.0378 97.933 17.6148 98.1373 18.374C98.3708 19.1333 98.4437 20.0292 98.3562 21.0618C98.3562 21.2137 98.327 21.6237 98.2686 22.2918C98.2394 22.9296 98.2102 23.4459 98.181 23.8407C99.8447 20.1659 101.742 18.4803 103.872 18.784ZM97.6995 32.4963L97.6557 32.4507V32.5418C99.6112 31.1751 101.187 28.9733 102.384 25.9363C103.376 23.4459 103.624 21.7452 103.128 20.834C103.011 20.5607 102.807 20.4089 102.515 20.3785C101.727 20.3177 100.925 21.3048 100.107 23.3396C99.3193 25.344 98.721 27.3788 98.3124 29.444L97.6995 32.4963Z" fill="url(#paint6_linear)"/>
</g>
<defs>
<linearGradient id="paint0_linear" x1="-42.9048" y1="51" x2="117.708" y2="5.76432" gradientUnits="userSpaceOnUse">
<stop stop-color="#FF025A"/>
<stop offset="0.744792" stop-color="#FF783D"/>
<stop offset="0.791667" stop-color="#FF803B"/>
<stop offset="1" stop-color="#FFA133"/>
</linearGradient>
<linearGradient id="paint1_linear" x1="-42.9048" y1="51" x2="117.708" y2="5.76432" gradientUnits="userSpaceOnUse">
<stop stop-color="#FF025A"/>
<stop offset="0.744792" stop-color="#FF783D"/>
<stop offset="0.791667" stop-color="#FF803B"/>
<stop offset="1" stop-color="#FFA133"/>
</linearGradient>
<linearGradient id="paint2_linear" x1="-42.9048" y1="51" x2="117.708" y2="5.76432" gradientUnits="userSpaceOnUse">
<stop stop-color="#FF025A"/>
<stop offset="0.744792" stop-color="#FF783D"/>
<stop offset="0.791667" stop-color="#FF803B"/>
<stop offset="1" stop-color="#FFA133"/>
</linearGradient>
<linearGradient id="paint3_linear" x1="-42.9048" y1="51" x2="117.708" y2="5.76432" gradientUnits="userSpaceOnUse">
<stop stop-color="#FF025A"/>
<stop offset="0.744792" stop-color="#FF783D"/>
<stop offset="0.791667" stop-color="#FF803B"/>
<stop offset="1" stop-color="#FFA133"/>
</linearGradient>
<linearGradient id="paint4_linear" x1="-42.9048" y1="51" x2="117.708" y2="5.76432" gradientUnits="userSpaceOnUse">
<stop stop-color="#FF025A"/>
<stop offset="0.744792" stop-color="#FF783D"/>
<stop offset="0.791667" stop-color="#FF803B"/>
<stop offset="1" stop-color="#FFA133"/>
</linearGradient>
<linearGradient id="paint5_linear" x1="-42.9048" y1="51" x2="117.708" y2="5.76432" gradientUnits="userSpaceOnUse">
<stop stop-color="#FF025A"/>
<stop offset="0.744792" stop-color="#FF783D"/>
<stop offset="0.791667" stop-color="#FF803B"/>
<stop offset="1" stop-color="#FFA133"/>
</linearGradient>
<linearGradient id="paint6_linear" x1="-42.9048" y1="51" x2="117.708" y2="5.76432" gradientUnits="userSpaceOnUse">
<stop stop-color="#FF025A"/>
<stop offset="0.744792" stop-color="#FF783D"/>
<stop offset="0.791667" stop-color="#FF803B"/>
<stop offset="1" stop-color="#FFA133"/>
</linearGradient>
</defs>
</svg>
