<svg width="12" height="21" viewBox="0 0 12 21" fill="none" xmlns="http://www.w3.org/2000/svg">
<mask id="mask0" mask-type="alpha" maskUnits="userSpaceOnUse" x="0" y="0" width="12" height="21">
<path fill-rule="evenodd" clip-rule="evenodd" d="M9.54455 0.412269L0.386941 9.40223C-0.12898 9.90796 -0.12898 10.7522 0.386941 11.26L9.54455 20.2479C10.1062 20.7993 10.9928 20.7993 11.5544 20.2479C12.1485 19.6643 12.1485 18.6923 11.5544 18.1077L3.88465 10.5788C3.74551 10.4428 3.74551 10.2174 3.88465 10.0814L11.5544 2.55254C12.1485 1.96892 12.1485 0.996923 11.5544 0.412269C11.2731 0.138115 10.9115 0 10.55 0C10.1874 0 9.82587 0.138115 9.54455 0.412269Z" fill="white"/>
</mask>
<g mask="url(#mask0)">
<path fill-rule="evenodd" clip-rule="evenodd" d="M9.54455 0.412269L0.386941 9.40223C-0.12898 9.90796 -0.12898 10.7522 0.386941 11.26L9.54455 20.2479C10.1062 20.7993 10.9928 20.7993 11.5544 20.2479C12.1485 19.6643 12.1485 18.6923 11.5544 18.1077L3.88465 10.5788C3.74551 10.4428 3.74551 10.2174 3.88465 10.0814L11.5544 2.55254C12.1485 1.96892 12.1485 0.996923 11.5544 0.412269C11.2731 0.138115 10.9115 0 10.55 0C10.1874 0 9.82587 0.138115 9.54455 0.412269Z" fill="#FF4D67"/>
</g>
</svg>
