<svg width="49" height="49" viewBox="0 0 49 49" fill="none" xmlns="http://www.w3.org/2000/svg">
<circle cx="24.5" cy="24.5" r="24.5" fill="url(#paint0_linear)"/>
<path d="M28.5058 19.8648C27.9547 20.1848 27.4005 20.501 26.8456 20.8241C24.5485 22.155 22.2552 23.4827 19.9581 24.8136C19.4032 25.1367 18.842 25.4522 18.2902 25.7792C18.1561 25.8578 18.0647 25.856 17.931 25.7797C15.8203 24.5537 13.7057 23.331 11.5873 22.1113C11.1931 21.883 10.9578 21.5749 10.9908 21.1096C11.0295 20.6202 11.3001 20.2871 11.7379 20.0865C11.8485 20.0338 11.9742 20.0072 12.093 19.98C18.8496 18.4435 25.6133 16.9077 32.3699 15.3712C32.9491 15.2406 33.4329 15.4142 33.6678 15.8385C33.8365 16.1437 33.8223 16.4453 33.68 16.7626C32.3162 19.8605 30.9588 22.9661 29.5982 26.0678C28.1386 29.3995 26.6797 32.7242 25.2201 36.0559C25.086 36.3599 24.9102 36.6212 24.5976 36.7635C24.0123 37.0344 23.3652 36.7251 23.1346 36.0653C22.6956 34.811 22.2604 33.5537 21.8251 32.2963C21.4674 31.2648 21.1128 30.2372 20.7512 29.2088C20.6951 29.0555 20.698 28.9501 20.8164 28.8136C23.3766 25.8738 25.9268 22.9296 28.4807 19.9821C28.5005 19.9594 28.5171 19.9328 28.5374 19.9031C28.5311 19.8954 28.5185 19.8801 28.5058 19.8648Z" fill="white"/>
<defs>
<linearGradient id="paint0_linear" x1="-10.0882" y1="41.0735" x2="51.8824" y2="7.92647" gradientUnits="userSpaceOnUse">
<stop stop-color="#FF0099"/>
<stop offset="0.968763" stop-color="#FFAA2D"/>
</linearGradient>
</defs>
</svg>
